<svg width="101" height="115" viewBox="0 0 101 115" fill="none" xmlns="http://www.w3.org/2000/svg">
<path d="M55.4876 58.121C55.4876 60.7648 53.3412 62.9087 50.6943 62.9087C48.0474 62.9087 45.9035 60.7648 45.9035 58.121C45.9035 55.4772 48.0499 53.3359 50.6943 53.3359C53.3386 53.3359 55.4876 55.4772 55.4876 58.121ZM50.3486 34.1876C50.3486 40.9723 47.7533 47.1541 43.5017 51.7949C42.0131 53.4827 41.1102 55.6962 41.1102 58.121C41.1102 63.4086 45.4004 67.6938 50.6943 67.6938C55.9881 67.6938 60.2784 63.4086 60.2784 58.121C60.2784 55.6962 59.3755 53.4827 57.8869 51.7949C53.6353 47.1541 51.04 40.9749 51.04 34.1876C51.04 27.4003 53.6327 21.2237 57.8843 16.5829C59.3729 14.8951 60.2758 12.6816 60.2758 10.2568C60.2758 4.96919 55.9856 0.68396 50.6917 0.68396C45.3979 0.68396 41.1076 4.96919 41.1076 10.2568C41.1076 12.6816 42.0105 14.8976 43.4991 16.5829C47.7507 21.2237 50.3434 27.4029 50.3434 34.1876M94.7477 53.2921C91.2366 53.2921 88.858 56.7398 88.8064 62.5789C88.6903 75.3109 84.658 84.9198 76.8204 91.1428C68.6397 97.6363 58.1346 99.051 50.6969 99.0794C35.4784 99.0794 24.514 93.9309 20.7939 91.1428C13.7664 85.8784 3.39797 77.8748 3.28962 62.5866C3.31283 60.1386 3.77721 55.9745 6.57376 55.9745C9.37031 55.9745 9.65926 59.8294 9.66184 62.5918C9.66184 74.1384 14.5842 82.8996 24.287 88.6278C33.5564 94.0984 45.0444 95.4564 50.6994 95.4564C64.0553 95.4564 72.1122 90.2229 76.4541 85.8423C81.5235 80.7299 84.7379 73.7313 84.5496 67.0934C84.3406 59.8062 85.3029 54.9154 89.0618 49.9371C93.2669 44.3712 95.1966 38.8156 91.9305 33.68C90.2717 31.0723 88.262 29.7297 84.9056 29.5107C81.5544 29.2917 78.2264 30.3044 75.9819 32.5977C70.9487 37.7385 72.6952 45.4354 74.385 52.8772C75.1228 56.1317 75.9149 59.0821 76.1264 62.6923C76.3328 66.2508 75.4711 71.2679 73.3118 75.0712C70.8223 79.4621 65.9386 86.3396 50.6994 86.3396C35.4603 86.3396 28.3709 79.7095 24.514 75.0712C20.572 70.3299 19.9657 62.4191 19.7078 59.8887C19.3053 55.9565 18.9854 52.8488 15.4278 48.2776C10.41 41.8356 11.1839 37.5632 12.7164 35.1127C13.6967 33.5434 15.3891 32.5359 17.4762 32.2705C19.9941 31.9535 22.6772 32.8142 24.4727 34.52C29.2016 39.014 26.6398 47.5793 25.1693 53.1838C23.6962 58.7884 25.2157 64.8671 26.2219 67.5933C29.6531 76.8776 38.5639 82.3662 50.6994 82.6496C59.0968 82.6496 69.0989 78.6453 71.7639 67.3511C72.7159 63.3158 72.9971 58.9327 70.8377 49.4964C69.3001 42.7684 67.8812 39.0217 69.5917 34.6695C71.0906 30.861 72.9584 28.3769 76.0826 27.2612C80.2542 25.7743 87.4906 23.8701 87.4906 17.9228C87.4906 11.5452 81.5028 9.85997 78.3373 9.85997C71.6684 9.85997 67.3266 12.9161 64.2901 15.5805C59.9972 19.3452 55.6682 26.5628 55.6682 34.2082C55.6682 41.3048 58.2249 45.0102 60.4771 48.2802C62.5384 51.2718 64.2153 53.6554 64.2849 58.1184C64.4242 66.9929 58.0082 72.2883 50.6994 72.3682C43.4475 72.448 37.0856 66.8074 37.0856 58.1184C37.0856 54.029 38.8167 51.4548 40.829 48.4064C43.0605 45.0334 45.5862 41.2094 45.5862 34.2031C45.5862 26.0088 41.1076 19.1545 36.9179 15.4697C33.7628 12.697 29.6556 9.85997 23.1286 9.85997C19.9632 9.85997 13.9753 11.5452 13.9753 17.9228C13.9753 24.3004 19.3672 25.563 22.2618 26.3387C27.0629 27.7636 29.4751 29.941 30.4502 31.3918C32.4032 33.9943 33.5177 37.3829 33.141 42.5262C32.9191 45.5642 30.7443 51.1945 30.7443 55.1267C30.7443 55.9745 30.4193 56.7476 29.8878 57.3273C29.7021 57.5386 29.5886 57.8144 29.5886 58.1184C29.5886 58.7807 30.1252 59.3166 30.7856 59.3166C31.4461 59.3166 31.9827 58.7807 31.9827 58.1184C31.9827 57.8144 31.8691 57.5386 31.6834 57.3273C31.152 56.7476 30.8269 55.9745 30.8269 55.1267C30.8269 53.3462 34.7534 45.4792 35.3674 42.5262C36.2575 38.2512 35.143 33.2084 32.7411 29.8431C31.6241 28.1012 28.4999 25.3775 22.9558 23.7309C19.5168 22.8084 16.6713 21.7365 16.6713 17.9228C16.6713 12.7125 22.4605 12.563 23.1209 12.563C28.7346 12.563 32.2071 14.9363 35.1249 17.5002C38.7006 20.6413 42.8748 26.903 42.8748 34.2056C42.8748 40.4003 40.7825 43.5672 38.5638 46.9196C36.4974 50.0453 34.4 52.988 34.4 58.121C34.4 68.4437 41.688 75.0712 50.6917 75.0712C58.875 75.0712 67.0376 68.8895 67.0376 58.121C67.0376 52.6942 64.1379 48.6615 62.6983 46.7495C60.3378 43.6136 58.3668 40.4647 58.3668 34.2108C58.3668 27.4493 62.3604 20.8655 66.0702 17.6136C68.9183 15.1167 72.5998 12.5656 78.3322 12.5656C78.9926 12.5656 84.7818 12.7151 84.7818 17.9254C84.7818 21.5174 80.3574 23.0429 76.7482 24.0247C69.6304 26.416 67.7858 31.6495 67.0454 33.7496C65.322 38.4883 66.4391 43.6342 68.1753 50.2411C69.7361 56.1858 70.2573 62.0532 69.1299 66.7198C68.3791 69.8223 64.8344 79.9491 50.7252 79.9491C39.6267 79.6889 31.8253 74.9682 28.7527 66.658C27.8497 64.2151 26.5134 58.6029 27.7982 53.792C29.0829 48.9811 32.2458 38.1817 26.3328 32.5642C23.9258 30.2786 20.4843 29.168 17.1331 29.5906C14.223 29.9591 11.8392 31.4124 10.4203 33.68C7.567 38.2409 8.55766 43.8609 13.2891 49.9371C16.372 53.895 16.6274 56.3894 17.0144 60.1644C17.2724 62.6923 18.0412 70.5257 21.1654 75.0712C25.337 81.1448 34.0336 89.0247 50.6969 89.0401C63.7586 89.053 71.7278 84.6389 76.534 74.7698C78.247 71.255 79.1474 66.5472 78.8198 62.4913C78.5153 58.7085 77.7801 55.6292 77.019 52.2768C75.4195 45.2292 73.9077 38.5733 77.9117 34.4839C79.5834 32.7781 82.0884 31.92 84.6115 32.1932C86.7915 32.4277 88.6232 33.4919 89.6345 35.1101C91.1669 37.5607 92.1266 41.7016 86.9231 48.275C81.7685 54.7892 81.6937 60.8344 81.8408 67.1218C81.8408 73.033 79.1087 79.3204 74.5295 83.938C70.5514 87.9501 63.1059 92.6476 50.6969 92.6476C45.0986 92.6476 34.4 91.4572 25.662 86.2984C16.839 81.0907 12.3655 73.1129 12.3655 62.5892C12.3113 56.7476 10.0824 53.2689 6.52732 53.2689C2.9723 53.2689 0.637534 56.7579 0.585938 62.5969C0.702031 79.2122 11.945 87.8316 19.0834 93.2532C23.4279 96.5515 34.7534 101.754 50.6969 101.754C62.0585 101.754 71.5446 98.7753 78.5025 93.2532C87.0108 86.4994 91.3888 76.187 91.51 62.5995C91.5333 60.1515 91.9976 55.9874 94.7916 55.9874C97.5856 55.9874 97.8771 59.8243 97.8797 62.5866C97.8745 83.2139 84.3123 96.2191 72.7004 101.092C65.4871 104.117 58.7382 104.475 50.6685 104.627C50.2841 104.627 49.91 104.679 49.5514 104.764C49.4895 104.779 49.4302 104.795 49.3682 104.81C49.2934 104.831 49.216 104.854 49.1412 104.88C48.4498 105.104 47.8797 105.462 47.423 105.898C46.4737 106.771 45.8751 108.021 45.8751 109.412C45.8751 112.056 48.0216 114.197 50.6685 114.197C53.3154 114.197 55.4618 112.054 55.4618 109.412C55.4618 108.619 55.2658 107.869 54.9227 107.212C61.5116 106.954 67.4091 106.24 73.7504 103.581C86.1259 98.3888 100.581 84.5358 100.586 62.5866C100.532 56.745 98.3028 53.2869 94.7477 53.2869" fill="#F3F2F0"/>
</svg>
